<svg width="1419" height="728" viewBox="0 0 1419 728" fill="none" xmlns="http://www.w3.org/2000/svg">
<g clip-path="url(#clip0_328_55)">
<path d="M1337.91 0H81.0857C36.3033 0 0 41.3159 0 92.2817V635.718C0 686.684 36.3033 728 81.0857 728H1337.91C1382.7 728 1419 686.684 1419 635.718V92.2817C1419 41.3159 1382.7 0 1337.91 0Z" fill="white"/>
<path d="M1344.53 0H74.4665C33.3398 0 0 33.3344 0 74.4545V653.545C0 694.666 33.3398 728 74.4665 728H1344.53C1385.66 728 1419 694.666 1419 653.545V74.4545C1419 33.3344 1385.66 0 1344.53 0Z" fill="#999"/>
<path d="M126.869 954.121C351.542 954.121 533.676 772.017 533.676 547.379C533.676 322.741 351.542 140.636 126.869 140.636C-97.805 140.636 -279.939 322.741 -279.939 547.379C-279.939 772.017 -97.805 954.121 126.869 954.121Z" fill="#f00"/>
<path d="M126.869 803.833C268.527 803.833 383.364 689.015 383.364 547.379C383.364 405.743 268.527 290.924 126.869 290.924C-14.7899 290.924 -129.627 405.743 -129.627 547.379C-129.627 689.015 -14.7899 803.833 126.869 803.833Z" fill="#999"/>
</g>
<defs>
<clipPath id="clip0_328_55">
<rect width="1419" height="728" rx="50" fill="white"/>
</clipPath>
</defs>
</svg>